<svg xmlns="http://www.w3.org/2000/svg" width="115.625" height="16" fill="#333"><path d="M2.785 8.28c1.175-.756 2.834-.756 3.779.357.378.441.525 1.197.378 1.764-.042.189-.126.399-.378.42-.336.021-.399-.294-.441-.546-.105-.483-.147-1.008-.525-1.344-.567-.525-1.47-.399-2.121-.126-1.176.504-1.449 2.415-1.092 3.485.378 1.155 1.638 2.121 2.876 2.037 1.197-.063 2.457-.672 3.086-1.701.757-1.217.653-2.75.212-4.052-.105-.294-.189-.588-.294-.882-.105-.252-.105-.462-.252-.713-.315-.546-.483-1.302-.546-1.953-.105-1.155.189-2.415 1.092-3.213.966-.84 2.541-1.029 3.611-.294.903.63 1.092 1.89.693 2.855-.21.525-.588.987-1.113 1.239-.294.126-1.491.399-1.323-.294.084-.42.84-.462 1.155-.693.462-.336.672-.882.588-1.428-.189-1.281-1.848-1.596-2.792-.987-1.197.778-1.113 2.5-.819 3.697.189.798.546 1.554.777 2.352.21.735.483 1.533.441 2.289-.063 1.47-.756 2.981-1.974 3.842-1.197.819-3.065 1.071-4.388.462-1.26-.609-2.016-2.268-2.016-3.611 0-1.114.378-2.332 1.386-2.962zM13.537 15.335c-.84.042-1.554-.441-1.848-1.218-.672-1.869.462-3.758.798-5.585.063-.441.105-.945.315-1.344.231-.398.651-.398.798.063.126.42-.063.861-.168 1.281l-.462 1.659c-.105.483-.273.903-.399 1.386-.126.462-.21.966-.252 1.449-.063.798.483 1.617 1.344 1.47.84-.147 1.218-.882 1.47-1.617.315-.861.483-1.764.756-2.646.273-.84.378-1.743.588-2.625.084-.294.21-.714.63-.672.525.084.315.609.189.945-.147.441-.168.903-.294 1.344-.168.504-.441 1.68-.525 2.205-.168.966-.42 1.491-.147 2.079.399.84 1.449 1.134 2.121.525.651-.588.798-.966 1.092-2.247.063-.231.42-.525.588-.315.294.126.126.42.105.609-.105.546-.252 1.092-.504 1.596-.378.798-1.134 1.47-2.058 1.47-1.071 0-1.68-.357-2.142-1.197-.547.713-1.051 1.322-1.995 1.385z"/><path d="M21.349 8.7c-.504.756-.966 2.583-1.113 3.464-.063.336-.231.357-.441.273-.525-.21-.231-.588-.189-.924.126-1.092.546-2.31 1.092-3.254.252-.42.504-.735.903-1.008.147-.105.336-.294.504-.357.189-.084.567-.105.777-.147.987-.231 1.932.588 2.897.21.357-.147.777-.126.672.399-.084.42-.504.693-.714 1.05-.525.903-1.281 1.638-1.827 2.541-.504.861-1.071 1.743-1.722 2.499-.168.189-.357.336-.126.462.21.105.651 0 .903.021.924.042 1.701.609 2.667.315.924-.294 1.533-1.155 1.827-1.911.21-.546.231-.945.567-1.008s.441.315.378.609c-.231 1.071-.819 1.827-1.407 2.394-.756.714-1.932.903-2.897.693-.588-.126-1.239-.273-1.827-.294-.546-.042-.882.147-1.344.315-.399.126-.609-.126-.483-.525.147-.42.546-.84.798-1.197.378-.525.714-1.113 1.134-1.596.126-.168.294-.294.399-.462.126-.21.147-.378.315-.546.378-.462.714-.903 1.029-1.407.315-.483.672-.882.945-1.407-.168.21-1.386-.231-1.596-.273-1.009-.21-1.575.273-2.121 1.071z"/><path d="M29.539 15.335c-.84.042-1.554-.441-1.848-1.218-.672-1.869.462-3.758.798-5.585.063-.441.105-.945.315-1.344.231-.399.651-.399.798.063.126.42-.063.861-.168 1.281l-.462 1.659c-.105.483-.273.903-.399 1.386-.126.462-.21.966-.252 1.449-.063.798.483 1.617 1.344 1.47.84-.147 1.218-.882 1.47-1.617.315-.861.483-1.764.756-2.646.273-.84.378-1.743.588-2.625.084-.294.21-.714.63-.672.525.084.315.609.189.945-.147.441-.168.903-.294 1.344-.168.504-.441 1.68-.525 2.205-.168.966-.42 1.491-.147 2.079.399.84 1.449 1.134 2.121.525.651-.588.798-.966 1.092-2.247.063-.231.42-.525.588-.315.294.126.126.42.105.609-.105.546-.252 1.092-.504 1.596-.378.798-1.134 1.47-2.058 1.47-1.071 0-1.68-.357-2.142-1.197-.547.713-1.051 1.322-1.995 1.385z"/><path d="M39.744 9.666c.189-.672.567-1.764-.315-2.121-.693-.273-1.596.336-1.995.882-.546.735-.756 1.932-.966 2.813-.252 1.05-.378 1.911-.609 2.96-.063.252-.567 1.491-1.008.945-.231-.294 0-.987.063-1.302.063-.273.126-.525.168-.777.084-.483.315-.903.378-1.365.105-.609.315-1.197.462-1.806.126-.504.336-1.05.399-1.554.063-.42-.021-.903.294-1.239.148-.144.4-.291.589-.102.126.126.021.336.105.483.567-.525 1.554-1.05 2.331-.735.819.315 1.197 1.113 1.113 1.932-.063.525-.189.987-.315 1.491-.147.483-.21 1.008-.315 1.512-.168.777-.462 1.953.42 2.436 1.575.861 2.457-1.029 2.813-2.226.063-.231.147-.63.504-.525.336.084.252.504.189.756-.21.903-.546 1.722-1.218 2.394-.651.651-1.827.798-2.646.399-.756-.378-.966-1.323-.966-2.1 0-1.03.231-2.164.525-3.151z"/><path d="M43.209 12.438c.189-1.281.525-2.562.924-3.8.336-1.05 1.113-1.806 2.226-1.932.441-.063.903.021 1.302.231.126.042.399.399.441.399.105-.273.294-.483.441-.483.63-.021.252 1.155.189 1.386-.105.567-.168 1.029-.315 1.554-.168.588-.357 1.218-.525 1.806-.252.966-.084 2.646 1.197 2.688.672.042 1.008-.357 1.365-.84s.63-.798.714-1.365c.084-.609.273-.861.714-.63.441.252.021.966-.147 1.491-.315 1.008-1.197 1.932-2.268 2.121-.819.168-1.995-.147-2.352-.987-.483.588-1.596 1.659-2.688 1.197-1.218-.422-1.385-1.745-1.218-2.836zm1.008 1.511c.357.63 1.029.693 1.596.315.63-.441.861-1.113 1.071-1.806.252-.777.378-1.575.609-2.352.189-.651.42-1.533-.063-2.121-.399-.483-1.071-.525-1.596-.252-1.197.609-1.323 2.918-1.617 3.989-.189.716-.378 1.555 0 2.227zM65.089 4.396c-.168-.231-.105-.504.168-.63s.588.021.819.168c.798.441 1.26 1.491.945 2.394-.546 1.533-2.834 1.785-4.178 2.163 1.155.483 1.701 1.806 1.596 2.981-.147 1.407-1.008 2.729-2.373 3.212-.777.273-1.47.525-2.289.399-.735-.126-1.344-.252-1.932-.735-.546-.462-.966-1.071-1.26-1.722-.294-.714-.21-1.512-.168-2.268.105-1.596 1.323-2.939 2.771-3.548-2.268-1.554-1.239-4.871 1.092-5.711 1.008-.378 2.436-.252 3.191.609.693.798.735 2.079.126 2.939-.336.462-.777.777-1.323.903-.399.084-1.176.021-.924-.588.147-.357.441-.252.735-.294a.957.957 0 0 0 .672-.378c.42-.483.525-1.155.231-1.722-.567-.987-2.142-.987-2.981-.441-.987.63-1.575 1.974-1.113 3.086.21.525.546.966 1.113 1.092.336.063.693.126.987.315.378.21.357.567-.084.714-.567.189-1.155.042-1.701.357-.483.294-.966.819-1.365 1.239-.84.882-.903 2.268-.525 3.296.168.504.42 1.008.84 1.365 1.365 1.197 3.779.672 4.85-.693.609-.777.798-1.974.294-2.855-.651-1.113-2.205-1.26-2.918-.147-.42.693-.21 1.323.357 1.764.21.147.483.441.252.693s-.63.063-.861-.063c-1.008-.525-.84-1.827-.441-2.708.588-1.344 2.016-1.68 3.317-1.974.756-.168 1.596-.315 2.268-.672.273-.147.546-.378.756-.588.357-.378.294-1.365-.168-1.596-.251-.125-.566-.083-.776-.356zM71.264 8.28c1.176-.756 2.834-.756 3.779.357.378.441.525 1.197.378 1.764-.042.189-.126.399-.378.42-.336.021-.399-.294-.441-.546-.105-.483-.147-1.008-.525-1.344-.567-.525-1.47-.399-2.121-.126-1.176.504-1.449 2.415-1.092 3.485.378 1.155 1.638 2.121 2.876 2.037 1.197-.063 2.457-.672 3.086-1.701.756-1.218.651-2.75.21-4.052-.105-.294-.189-.588-.294-.882-.105-.252-.105-.462-.252-.714-.315-.546-.483-1.302-.546-1.953-.105-1.155.189-2.415 1.092-3.212.966-.84 2.541-1.029 3.611-.294.903.63 1.092 1.89.693 2.855-.21.525-.588.987-1.113 1.239-.294.126-1.491.399-1.323-.294.084-.42.84-.462 1.155-.693.462-.336.672-.882.588-1.428-.189-1.281-1.848-1.596-2.792-.987-1.197.777-1.113 2.499-.819 3.695.189.798.546 1.554.777 2.352.21.735.483 1.533.441 2.289-.063 1.47-.756 2.981-1.974 3.842-1.197.819-3.065 1.071-4.388.462-1.26-.609-2.016-2.268-2.016-3.611.002-1.112.38-2.33 1.388-2.96zM84.452 9.351c.042-.462.084-1.008-.273-1.365-.315-.273-.567-.399-.987-.357-1.155.168-1.596 1.176-1.827 2.205l-.42 1.953c-.231 1.05-.399 2.184-.756 2.981-.126.273-.441.609-.714.357-.294-.294.042-1.05.084-1.386.042-.21.126-.399.189-.609.084-.315.084-.63.168-.924.315-1.113.651-2.268.903-3.401.042-.231.042-.483.084-.714.021-.294.147-.525.231-.819.189-.609.273-1.239.441-1.848l.441-1.617c.105-.399.462-.987.84-.378.294.483-.168 1.176-.315 1.638-.21.609-.483 1.323-.42 1.974.735-.399 1.764-.357 2.457.126.567.399.693 1.197.651 1.848-.021.945-.336 1.911-.525 2.834-.105.609-.357 1.386.042 1.953.462.693 1.428.588 2.016.126.336-.252.504-.63.714-1.008.189-.336.231-.693.378-1.05.105-.252.378-.525.651-.315.231.189.063.903-.021 1.218-.21.777-.546 1.638-1.281 2.058-.756.42-1.743.504-2.52.084-.735-.42-.987-1.197-.987-1.995 0-1.238.651-2.33.756-3.569z"/><path d="M89.828 15.335c-.84.042-1.554-.441-1.848-1.218-.672-1.869.462-3.758.798-5.585.063-.441.105-.945.315-1.344.231-.399.651-.399.798.063.126.42-.063.861-.168 1.281l-.462 1.659c-.105.483-.273.903-.399 1.386-.126.462-.21.966-.252 1.449-.063.798.483 1.617 1.344 1.47.84-.147 1.218-.882 1.47-1.617.315-.861.483-1.764.756-2.646.273-.84.378-1.743.588-2.625.084-.294.21-.714.63-.672.525.084.315.609.189.945-.147.441-.168.903-.294 1.344-.168.504-.441 1.68-.525 2.205-.168.966-.42 1.491-.147 2.079.399.84 1.449 1.134 2.121.525.651-.588.798-.966 1.092-2.247.063-.231.42-.525.588-.315.294.126.126.42.105.609-.105.546-.252 1.092-.504 1.596-.378.798-1.134 1.47-2.058 1.47-1.071 0-1.68-.357-2.142-1.197-.546.713-1.05 1.322-1.995 1.385z"/><path d="M100.16 9.351c.042-.462.084-1.008-.273-1.365-.315-.273-.567-.399-.987-.357-1.155.168-1.596 1.176-1.827 2.205l-.42 1.953c-.231 1.05-.399 2.184-.756 2.981-.126.273-.441.609-.714.357-.294-.294.042-1.05.084-1.386.042-.21.126-.399.189-.609.084-.315.084-.63.168-.924.315-1.113.651-2.268.903-3.401.042-.231.042-.483.084-.714.021-.294.147-.525.231-.819.189-.609.273-1.239.441-1.848l.441-1.617c.105-.399.462-.987.84-.378.294.483-.168 1.176-.315 1.638-.21.609-.483 1.323-.42 1.974.735-.399 1.764-.357 2.457.126.567.399.693 1.197.651 1.848-.021.945-.336 1.911-.525 2.834-.105.609-.357 1.386.042 1.953.462.693 1.428.588 2.016.126.336-.252.504-.63.714-1.008.189-.336.231-.693.378-1.05.105-.252.378-.525.651-.315.231.189.063.903-.021 1.218-.21.777-.546 1.638-1.281 2.058-.756.42-1.743.504-2.52.084-.735-.42-.987-1.197-.987-1.995 0-1.238.651-2.33.756-3.569z"/><path d="M104.948 10.065c-.441-.504-.462-1.302-.21-1.911.273-.735.819-1.176 1.596-1.344.693-.147 1.638.021 2.121.588.252.294.672 1.239.399 1.596-.168.189-.504.231-.672.063-.189-.21-.126-.609-.231-.84-.315-.609-1.134-.672-1.701-.483-.693.21-1.029.882-.777 1.554.273.735.924.273 1.302.714s-.168.693-.609.651c-.462-.042-.903.126-1.26.483-1.092 1.05-.357 2.478.819 3.065 1.155.567 2.75.231 3.527-.861.735-1.05.525-1.638.945-1.743.168-.042.588.042.315 1.029-.441 1.617-2.184 2.939-3.947 2.667-1.596-.252-3.023-1.281-3.023-3.065 0-.945.608-1.722 1.406-2.163z"/><path d="M111.143 6.916c.42-.294.63.252.567.588-.189.945-.483 1.89-.651 2.855-.168 1.008-.609 1.869-.336 2.897.231.861.882 1.344 1.743.903.399-.21.777-.504 1.029-.903.315-.462.399-.84.525-1.344.084-.336.357-.819.651-.546.189.168.084.693.063.924-.126.903-.609 1.806-1.386 2.31-.882.567-2.163.84-2.981 0-.819-.882-.63-2.394-.462-3.254.021-.147.609-2.478.819-3.464.083-.295.146-.778.419-.966zm-.105-1.701c.189-.63 1.596-.504 1.386.441-.252 1.113-1.701.651-1.386-.441z"/></svg>
