<?xml version="1.0" encoding="utf-8"?>
<!-- Generator: Adobe Illustrator 16.0.0, SVG Export Plug-In . SVG Version: 6.00 Build 0)  -->
<!DOCTYPE svg PUBLIC "-//W3C//DTD SVG 1.1//EN" "http://www.w3.org/Graphics/SVG/1.1/DTD/svg11.dtd">
<svg version="1.1" id="レイヤー_1" xmlns="http://www.w3.org/2000/svg" xmlns:xlink="http://www.w3.org/1999/xlink" x="0px"
	 y="0px" width="241.722px" height="333.775px" viewBox="0 0 241.722 333.775" enable-background="new 0 0 241.722 333.775"
	 xml:space="preserve">
<path fill="none" stroke="#603813" stroke-width="3" stroke-linecap="round" stroke-linejoin="round" stroke-miterlimit="10" d="
	M45.49,45.12c5.096,0.309,4.487,7.268-1.513,7.268c-11,0-11-14.684,0-14.684s18.783,8.353,32.371,8.269
	c13.588-0.084,15.629-15.806,8.127-15.672c-6.248,0.111,2.511,11.401,12.236,11.95c9.727,0.549,29.089-12.337,28.981-27.975
	c-0.102-14.723-16.24-13.779-16.185,1.103c0.042,11.517,20.523,26.503,30.546,26.186c9.583-0.304,16.159-10.218,10.204-10.573
	c-5.535-0.33-9.085,15.21,7.426,15.823c18.857,0.699,17.609-10.037,30.116-9.419c12.507,0.618,12.983,14.21,0.858,13.897
	c-5.783-0.149-6.234-6.79-0.854-6.97"/>
<path fill="none" stroke="#603813" stroke-width="3" stroke-linecap="round" stroke-linejoin="round" stroke-miterlimit="10" d="
	M34.476,112.323c0.116-11.233-20.075-9.727-20.267,4.632c-0.228,17.104,15.784,15.244,15.784,15.244s11.593,0.059,15.021-13.738
	c1.822-7.336-1.113-16.98-3.706-22.814c-1.849-4.158-3.891-12.233,0.463-17.255c3.765-4.344,9.645-5.636,14.092-2.126
	c4.448,3.509,4.561,11.163-2.405,14.518"/>
<path fill="none" stroke="#603813" stroke-width="3" stroke-linecap="round" stroke-linejoin="round" stroke-miterlimit="10" d="
	M59.954,99.005L59.954,99.005c0,0-12.507,33.274,0,33.313c12.507,0.039,15.797-33.413,16.56-33.313s-5.269,20.334-5.377,24.204
	c-0.107,3.87,1.208,7.064,6.651,8.454c5.443,1.39,10.122-11.224,11.829-17.006c1.708-5.783,0.794-15.568,9.827-16.768
	c9.032-1.2,6.64,2.893,15.865,1c2.258-0.463-24.515,32.095-23.74,32.426c1.422,0.608,2.101-1.696,5.906-1.853
	c3.805-0.156,6.867,2.059,11.233,2.084c4.365,0.025,10.5-1.854,12.391-8.801c1.781-6.541,5.675-23.277,5.675-23.393
	c0-0.076-3.234,13.714-5.062,23.435c-0.952,5.063,1.116,9.171,5.062,9.412c6.578,0.4,9.64-4.6,11.244-9.801
	s5.316-23.045,5.316-23.045s-4.367,18.536-5.316,25.056c-0.296,2.031,1.986,6.771,5.316,7.254c3.329,0.481,8.631-2.795,10.307-6.717
	c1.676-3.922,6.586-26.057,6.586-26.057l-8.312,32.772c0,0,6.133-24.911,7.452-27.541c1.735-3.459,5.105-6.232,10.14-6.232
	c3.408,0,7.471,1.335,3.358,16.171c-4.048,14.605,0.532,17.352,3.938,17.487s8.212-1.859,10.539-8.917
	c2.327-7.057,4.863-19.456,4.863-19.456s1.39-5.476,8.223-5.285c6.833,0.19,6.944,4.997,7.527,6.907
	c0.583,1.91-4.169,17.95-4.169,17.95s-2.664,9.651-10.538,9.573c-7.875-0.076-4.791-12.12-4.791-12.12"/>
<path fill="none" stroke="#603813" stroke-width="3" stroke-linecap="round" stroke-linejoin="round" stroke-miterlimit="10" d="
	M210.46,98.889c0,0-5.622,20.188-6.675,23.856c-0.802,2.793,0.804,9.603,6.944,9.319c6.142-0.285,9.402-10.008,10.32-13.427"/>
<path fill="none" stroke="#603813" stroke-width="3" stroke-linecap="round" stroke-linejoin="round" stroke-miterlimit="10" d="
	M118.301,159.478c9.18-0.214,7.881-16.621-3.23-16.636c-9.594-0.013-20.562,19.944-1.351,24.241
	c1.323,0.296-17.703,0.826-17.7,17.524c0.002,11.444,7.557,16.673,14.233,17.069s17.282-6.008,17.226-15.365
	c-0.128-21.15-28.877-6.907-15.005,3.81c1.149,0.888-13.747-9.948,6.644-17.865c27.263-10.585,18.9-20.845,14.615-20.827"/>
<path fill="none" stroke="#603813" stroke-width="3" stroke-linecap="round" stroke-linejoin="round" stroke-miterlimit="10" d="
	M64.606,221.373c19.121-9.605-4.379-28.336-12.776-9.98c-2.597,5.677,2.162,15.576,3.645,21.184
	c1.482,5.607,5.252,28.711-13.998,28.711c-19.263,0-18.75-28.71-5.38-28.711c10.993-0.001,10.897,10.232,10.897,10.232"/>
<path fill="none" stroke="#603813" stroke-width="3" stroke-linecap="round" stroke-linejoin="round" stroke-miterlimit="10" d="
	M75.897,211.767l-11.474,50.077c0,0,4.479-34.908,16.602-34.719c9.451,0.147,3.313,23.636,3.313,23.636s-3.103,10.171,4.888,10.275
	c9.546,0.125,15.309-32.281,15.309-32.281s-11.686,32.644,0.238,32.279c11.925-0.363,17.64-32.992,17.64-32.992
	s-11.062,33.863,0.057,33.802c12.998-0.072,19.598-50.077,19.598-50.077l-11.475,50.077c0,0,5.634-33.888,15.521-33.762
	c12.863,0.164-6.137,33.914,9.583,32.296c6.896-0.71,9.44-9.729,10.477-12.5c1.102-2.944,3.042-8.052,10.429-7.386
	c1.875,0.169-8.212-0.322-5.179-7.49c4.429-10.466,15.003-4.317,13.943,1.034"/>
<path fill="none" stroke="#603813" stroke-width="3" stroke-linecap="round" stroke-linejoin="round" stroke-miterlimit="10" d="
	M209.703,249.163c0,0-2.101,12.124-11.976,12.124c-9.25,0-0.072-33.33-0.072-33.33s-5.178,33.888-20.229,34.008
	c-10.486,0.084-12.662-9.805-11.252-14.086"/>
<path fill="none" stroke="#603813" stroke-width="3" stroke-miterlimit="10" d="M200.977,221.183c0,1.023-0.83,1.854-1.854,1.854
	h-0.293c-1.023,0-1.854-0.83-1.854-1.854v-0.293c0-1.023,0.83-1.854,1.854-1.854h0.293c1.023,0,1.854,0.83,1.854,1.854V221.183z"/>
<path fill="none" stroke="#603813" stroke-width="3" stroke-linecap="round" stroke-linejoin="round" stroke-miterlimit="10" d="
	M170.386,169.707l46.102-0.417c0,0,3.574-8.974,7.196-8.239c3.623,0.734,4.122,6.787-5.614,8.365
	c-9.737,1.578,13.081,1.08,8.007,8.801c-5.074,7.722-9.038-5.68-9.201-5.949"/>
<path fill="none" stroke="#603813" stroke-width="3" stroke-linecap="round" stroke-linejoin="round" stroke-miterlimit="10" d="
	M224.687,169.416c0,0,12.836-6.34,12.992,0.382C237.834,176.519,226.208,168.953,224.687,169.416z"/>
<path fill="none" stroke="#603813" stroke-width="3" stroke-linecap="round" stroke-linejoin="round" stroke-miterlimit="10" d="
	M71.212,170.438l-46.461-0.641c0,0-6.177-12.257-9.419-8.79c-3.243,3.469,8.338,8.79,8.338,8.79s-11.964,6.507-9.301,8.776
	c2.663,2.269,7.45-0.042,9.611-7.766"/>
<path fill="none" stroke="#603813" stroke-width="3" stroke-linecap="round" stroke-linejoin="round" stroke-miterlimit="10" d="
	M16.258,169.897c0,0-12.044-6.105-12.662-1.131C2.979,173.74,15.361,170.492,16.258,169.897z"/>
<path fill="none" stroke="#603813" stroke-width="3" stroke-linecap="round" stroke-linejoin="round" stroke-miterlimit="10" d="
	M191.838,287.98c-5.096-0.309-4.861-7.268,1.139-7.268c11,0,11,14.684,0,14.684s-18.41-8.352-31.998-8.268
	s-15.441,15.806-7.939,15.672c6.248-0.111-2.418-11.4-12.144-11.95c-9.727-0.55-29.042,12.337-28.935,27.975
	c0.102,14.723,16.264,13.779,16.208-1.103c-0.042-11.518-20.512-26.504-30.534-26.186c-9.583,0.303-16.153,10.217-10.198,10.572
	c5.535,0.33,9.088-15.211-7.423-15.823c-18.857-0.699-17.608,10.037-30.114,9.419c-12.508-0.617-12.983-14.209-0.858-13.896
	c5.783,0.149,6.048,6.79,0.667,6.971"/>
</svg>
