<?xml version="1.0" encoding="utf-8"?>
<svg version="1.1" xmlns="http://www.w3.org/2000/svg" xmlns:xlink="http://www.w3.org/1999/xlink" viewBox="0 0 161.488 66.977" xml:space="preserve">
<path fill="none" stroke-width="3" stroke-linecap="round" stroke-linejoin="round" stroke-miterlimit="10" d="
	M8.25,35.75c-14.25,10.5,6.5,17.5,11,7S28.75,1.5,34.5,3.5"/>
<path fill="none" stroke-width="3" stroke-linecap="round" stroke-linejoin="round" stroke-miterlimit="10" d="
	M15.25,29.5C4.75,23.354,12,3.407,31.75,3.407c20.5,0,26,32.093-4.75,33.343"/>
<path fill="none" stroke-width="3" stroke-linecap="round" stroke-linejoin="round" stroke-miterlimit="10" d="
	M53.75,23.75l-6,25.062c0,0,5.25-28.562,14.25-25.062S60.387,43.494,52,41c-2.222-0.661,14.5,16.25,21,1.5"/>
<path fill="none" stroke-width="3" stroke-linecap="round" stroke-linejoin="round" stroke-miterlimit="10" d="
	M84.501,22.916C83.587,22.977,77.75,21.5,74.25,35s2.1,14.733,3.25,15c3.41,0.791,8.5-1,11.5-13.25S86.417,22.787,84.501,22.916z"/>
<path fill="none" stroke-width="3" stroke-linecap="round" stroke-linejoin="round" stroke-miterlimit="10" d="
	M94,23.5l18.168-0.047c0,0-7.333,24.545,0.332,25.359C119.496,49.555,123,38.5,123,38.5l6.25-28.57l-7,33.82c0,0,1.25,4.874,6,5.062
	S137,39.5,137,39.5s2-6.25,8.25-6.25S139,33.5,139.75,28s7.256-4.646,7.256-4.646s5.244,0.396,5.494,4.396"/>
<path fill="none" stroke-width="3" stroke-linecap="round" stroke-linejoin="round" stroke-miterlimit="10" d="
	M158.5,39.75c0,0-2.25,9.411-11.75,9.081S137,39.5,137,39.5"/>
<path fill="none" stroke-width="3" stroke-linecap="round" stroke-linejoin="round" stroke-miterlimit="10" d="
	M114.5,16.5c-4.499,2.248,3.048,4.048,1.25,0c-5.332-12.002-12.25-5.25-14-0.5S95.011,47.007,91,56.75
	c-1.156,2.807-5.349,9-11.549,3.75"/>
</svg>
