<?xml version="1.0" encoding="utf-8"?>
<svg version="1.1" xmlns="http://www.w3.org/2000/svg" xmlns:xlink="http://www.w3.org/1999/xlink" viewBox="0 0 209.994 101.988" enable-background="new 0 0 209.994 101.988" xml:space="preserve">
<path fill="none" stroke-width="3" stroke-linecap="round" stroke-linejoin="round" stroke-miterlimit="10" d="
	M29.566,56.54c-14.25,10.5,6.5,17.5,11,7s9.5-41.25,15.25-39.25"/>
<path fill="none" stroke-width="3" stroke-linecap="round" stroke-linejoin="round" stroke-miterlimit="10" d="
	M36.566,50.29c-10.5-6.146-3.25-26.093,16.5-26.093c20.5,0,26,32.093-4.75,33.343"/>
<path fill="none" stroke-width="3" stroke-linecap="round" stroke-linejoin="round" stroke-miterlimit="10" d="
	M75.066,44.54l-6,25.062c0,0,5.25-28.562,14.25-25.062s-1.612,19.744-10,17.25c-2.222-0.661,14.5,16.25,21,1.5"/>
<path fill="none" stroke-width="3" stroke-linecap="round" stroke-linejoin="round" stroke-miterlimit="10" d="
	M105.817,43.706c-0.914,0.061-6.751-1.416-10.251,12.084s2.101,14.732,3.25,15c3.41,0.791,8.5-1,11.5-13.25
	S107.733,43.577,105.817,43.706z"/>
<path fill="none" stroke-width="3" stroke-linecap="round" stroke-linejoin="round" stroke-miterlimit="10" d="
	M115.316,44.29l18.168-0.047c0,0-7.333,24.545,0.332,25.358c6.996,0.743,10.5-10.312,10.5-10.312l6.25-28.57l-7,33.82
	c0,0,1.25,4.874,6,5.062c4.75,0.188,8.75-9.312,8.75-9.312s2-6.25,8.25-6.25s-6.25,0.25-5.5-5.25s7.256-4.646,7.256-4.646
	s5.244,0.396,5.494,4.396"/>
<path fill="none" stroke-width="3" stroke-linecap="round" stroke-linejoin="round" stroke-miterlimit="10" d="
	M179.816,60.54c0,0-2.25,9.411-11.75,9.081s-9.75-9.331-9.75-9.331"/>
<path fill="none" stroke-width="3" stroke-linecap="round" stroke-linejoin="round" stroke-miterlimit="10" d="
	M135.816,37.29c-4.499,2.248,3.048,4.048,1.25,0c-5.332-12.002-12.25-5.25-14-0.5s-6.738,31.007-10.75,40.75
	c-1.156,2.807-5.349,9-11.549,3.75"/>
<path fill="none" stroke-width="3" stroke-linecap="round" stroke-linejoin="round" stroke-miterlimit="10" d="
	M159.635,92.853c1.918,0.003,3.084-4.247-1.318-4.5c-6.421-0.369-6.322,10,1.623,10s21.195-19.25,31.195-19.5s13.25,7,13.25,11.5
	s-4.75,9.5-10.5,9.5s-6.887-4.883-7-6c-0.107-1.064,0-4.006,3.5-4.503s5.5,2.003,5.5,2.003s-0.5-3.75,6.75-10.5s6-19-1.75-19
	s-7.75,5.75-7.75,5.75s-0.027,5.667,4.5,5.75c4.668,0.086,3.75-5.75,1-5.75"/>
<path fill="none" stroke-width="3" stroke-linecap="round" stroke-linejoin="round" stroke-miterlimit="10" d="
	M49.903,8.85c-1.918-0.003-3.084,4.247,1.318,4.5c6.421,0.369,6.322-10-1.623-10S28.403,22.6,18.403,22.85s-13.25-7-13.25-11.5
	s4.75-9.5,10.5-9.5s6.887,4.883,7,6c0.107,1.064,0,4.006-3.5,4.503s-5.5-2.003-5.5-2.003s0.5,3.75-6.75,10.5s-6,19,1.75,19
	s7.75-5.75,7.75-5.75s0.027-5.667-4.5-5.75c-4.668-0.086-3.75,5.75-1,5.75"/>
</svg>
